<svg width="200" height="74" viewBox="0 0 200 74" fill="none" xmlns="http://www.w3.org/2000/svg">
<path d="M22.3438 53.0938C22.3438 52.4062 22.5104 51.875 22.8438 51.5C23.1979 51.1042 23.5938 50.9062 24.0312 50.9062C24.4896 50.9062 24.8854 51.0729 25.2188 51.4062C25.5729 51.7188 25.7292 52.2083 25.6875 52.875C25.4792 57.0833 24.3438 60.4688 22.2812 63.0312C20.3021 65.4896 17.8229 66.7188 14.8438 66.7188C9.21875 66.7188 5.58333 62.5104 3.9375 54.0938C3.3125 50.9896 3 47.3333 3 43.125C3 38.8958 3.26042 35.1354 3.78125 31.8438C4.30208 28.5312 5.09375 25.6562 6.15625 23.2188C8.42708 18.0104 11.6562 15.4062 15.8438 15.4062C19.0938 15.4062 21.5 16.6875 23.0625 19.25C24.7083 21.9792 25.5312 26.4375 25.5312 32.625C25.5312 33.3125 25.375 33.8333 25.0625 34.1875C24.75 34.5208 24.375 34.6875 23.9375 34.6875C22.9792 34.6875 22.5 34.0833 22.5 32.875C22.5 25.1667 21.2708 20.5729 18.8125 19.0938C17.9375 18.5729 16.9167 18.3125 15.75 18.3125C14.5833 18.3125 13.5312 18.6458 12.5938 19.3125C11.6771 19.9583 10.8542 20.8646 10.125 22.0312C9.41667 23.1771 8.80208 24.5417 8.28125 26.125C7.76042 27.6875 7.33333 29.375 7 31.1875C6.33333 34.8542 6 38.4792 6 42.0625C6 45.625 6.11458 48.4896 6.34375 50.6562C6.57292 52.8021 6.89583 54.6458 7.3125 56.1875C7.72917 57.7083 8.21875 58.9583 8.78125 59.9375C9.36458 60.8958 10 61.6562 10.6875 62.2188C11.8542 63.1979 13.3438 63.6875 15.1562 63.6875C17.1771 63.6875 18.8333 62.8646 20.125 61.2188C21.6458 59.3229 22.3854 56.6146 22.3438 53.0938ZM44.375 59.5938C44.3542 58.4479 44.3542 57.0417 44.375 55.375C43.4792 55.0625 42.3438 54.9062 40.9688 54.9062C39.1146 54.9062 37.5938 55.3542 36.4062 56.25C35.8229 56.7083 35.3542 57.2708 35 57.9375C34.6458 58.5833 34.4688 59.4271 34.4688 60.4688C34.4688 61.4896 34.8229 62.3438 35.5312 63.0312C36.2396 63.7188 37.2812 64.0625 38.6562 64.0625C40.0312 64.0625 41.5625 63.125 43.25 61.25C43.7292 60.7292 44.1042 60.1771 44.375 59.5938ZM46.375 66.6562C45.125 66.6562 44.5 65.7083 44.5 63.8125C44.5 63.6875 44.4896 63.3333 44.4688 62.75C44.2812 62.9792 44.0729 63.2292 43.8438 63.5C41.9688 65.625 39.9271 66.6875 37.7188 66.6875C35.9479 66.6875 34.4792 66.125 33.3125 65C32.1042 63.8333 31.5 62.3438 31.5 60.5312C31.5 58.0104 32.4792 55.9792 34.4375 54.4375C35.3125 53.75 36.2917 53.2292 37.375 52.875C38.4792 52.5208 39.7083 52.3438 41.0625 52.3438C42.1875 52.3438 43.2917 52.5312 44.375 52.9062V49.5938C44.375 47.7604 43.9896 46.3854 43.2188 45.4688C42.4688 44.5521 41.6875 44.0938 40.875 44.0938C40.0625 44.0938 39.3958 44.1979 38.875 44.4062C38.375 44.6146 37.9271 44.9167 37.5312 45.3125C36.6562 46.1667 36.1562 47.2292 36.0312 48.5C36.0938 49.1667 35.9583 49.6354 35.625 49.9062C35.2917 50.1562 34.9271 50.2812 34.5312 50.2812C33.4062 50.2812 32.8646 49.5312 32.9062 48.0312C32.9479 46.4688 33.7396 45.0312 35.2812 43.7188C36.8646 42.3646 38.6354 41.6875 40.5938 41.6875C43.5104 41.6875 45.4792 43.1354 46.5 46.0312C46.8542 47.0729 47.0312 48.2188 47.0312 49.4688V52.6875L47 57.9375V60.7188C47 61.9688 47.1458 62.9792 47.4375 63.75C47.75 64.5208 47.9062 65.0729 47.9062 65.4062C47.9062 65.7188 47.75 66 47.4375 66.25C47.125 66.5208 46.7708 66.6562 46.375 66.6562ZM67.5938 43.4688C67.5938 44.5938 67.0312 45.2396 65.9062 45.4062C64.5312 45.6771 62.9792 46.8542 61.25 48.9375C59.3958 51.1875 58.3542 53.4062 58.125 55.5938C58.0417 56.5521 58 57.4271 58 58.2188C58 60.1146 58.0833 62.1042 58.25 64.1875C58.2917 64.875 58.1146 65.3958 57.7188 65.75C57.3438 66.1042 56.9271 66.2812 56.4688 66.2812C56.0312 66.2812 55.6458 66.125 55.3125 65.8125C54.9792 65.4792 54.8438 64.9896 54.9062 64.3438C54.9688 63.6771 55.0208 62.9167 55.0625 62.0625C55.1042 61.1875 55.1458 60.2708 55.1875 59.3125C55.2292 57.6875 55.25 55.875 55.25 53.875C55.25 50.5 55.2083 48 55.125 46.375C55.0417 44.7292 55.0521 43.7812 55.1562 43.5312C55.2604 43.2812 55.3958 43.0833 55.5625 42.9375C55.9167 42.6042 56.3021 42.4375 56.7188 42.4375C57.1562 42.4375 57.5417 42.5938 57.875 42.9062C58.2292 43.2188 58.3854 43.625 58.3438 44.125C58.3229 44.6042 58.2812 45.0833 58.2188 45.5625C58.1771 46.0208 58.125 46.5938 58.0625 47.2812C57.9375 48.3854 57.8229 49.5625 57.7188 50.8125C58.5729 48.6667 59.7917 46.6875 61.375 44.875C63.1458 42.8958 64.6875 41.9062 66 41.9062C66.5625 41.9062 66.9688 42.0625 67.2188 42.375C67.4688 42.6875 67.5938 43.0521 67.5938 43.4688ZM83.3438 52.25L83.3125 45.6562C82.1042 44.8854 80.9583 44.5 79.875 44.5C78.8125 44.5 77.875 44.7188 77.0625 45.1562C76.2708 45.5729 75.5521 46.2083 74.9062 47.0625C73.4479 48.9583 72.7188 51.4688 72.7188 54.5938C72.7188 58.9896 73.7292 61.8854 75.75 63.2812C76.4167 63.7396 77.1771 63.9688 78.0312 63.9688C78.8854 63.9688 79.6146 63.7917 80.2188 63.4375C80.8229 63.0833 81.3333 62.6458 81.75 62.125C82.5 61.1667 83.0104 60.0312 83.2812 58.7188C83.3229 57.0104 83.3438 54.8542 83.3438 52.25ZM85.875 21C85.8542 22.5625 85.8333 24.2188 85.8125 25.9688C85.8125 27.6979 85.8125 31.4271 85.8125 37.1562C85.8125 42.8646 85.9167 48.4062 86.125 53.7812C86.3542 59.1354 86.5104 62.0521 86.5938 62.5312C86.6979 63.0104 86.8021 63.4167 86.9062 63.75C87.0312 64.0833 87.1354 64.3542 87.2188 64.5625C87.3229 64.7708 87.375 65.0208 87.375 65.3125C87.375 65.6042 87.2396 65.8646 86.9688 66.0938C86.7188 66.3438 86.4375 66.4688 86.125 66.4688C84.7708 66.4688 84.0625 65.125 84 62.4375C84 62.375 84 62.3229 84 62.2812C82.625 65.2188 80.5625 66.6875 77.8125 66.6875C75.4375 66.6875 73.5208 65.7083 72.0625 63.75C70.5 61.6458 69.7188 58.6979 69.7188 54.9062C69.7188 50.9271 70.75 47.6875 72.8125 45.1875C74.6875 42.8958 76.9062 41.75 79.4688 41.75C80.9062 41.75 82.1354 42.0104 83.1562 42.5312C83.1354 41.0312 83.125 39.4792 83.125 37.875C83.1042 35.875 83.0833 33.8854 83.0625 31.9062C83.0417 29.9062 83.0104 27.9688 82.9688 26.0938C82.9479 24.2188 82.9271 22.4583 82.9062 20.8125C82.8646 17.375 82.8125 15.0625 82.75 13.875C82.6875 12.6875 82.8438 11.9375 83.2188 11.625C83.5938 11.2917 84.0104 11.125 84.4688 11.125C84.9479 11.125 85.375 11.2917 85.75 11.625C86.1458 11.9375 86.3021 12.5208 86.2188 13.375C86.1562 14.2292 86.0938 15.3229 86.0312 16.6562C85.9688 17.9896 85.9167 19.4375 85.875 21ZM119.125 17.0312C119 27.4062 118.938 34.75 118.938 39.0625C118.938 43.3542 118.938 46.5104 118.938 48.5312C118.958 50.5312 118.979 52.4375 119 54.25C119.042 58.0833 119.083 60.7083 119.125 62.125C119.188 63.5208 119.156 64.3542 119.031 64.625C118.906 64.8958 118.74 65.125 118.531 65.3125C117.677 66.0833 116.771 66.1562 115.812 65.5312C115.438 65.2812 115.167 64.9062 115 64.4062C113.167 59.0312 110.958 53.1979 108.375 46.9062C105.792 40.5938 103.99 36.1354 102.969 33.5312C101.115 28.8021 99.5 24.4688 98.125 20.5312L98.5312 64.125C98.5312 64.7708 98.3646 65.25 98.0312 65.5625C97.6979 65.875 97.3125 66.0312 96.875 66.0312C96.4583 66.0312 96.0625 65.8646 95.6875 65.5312C95.3333 65.1771 95.1667 64.6562 95.1875 63.9688C95.3958 58.2396 95.5 51.7083 95.5 44.375V25.8438C95.5 22.6146 95.4792 19.8333 95.4375 17.5C95.4375 16.7292 95.6667 16.1458 96.125 15.75C96.6042 15.3333 97.1042 15.125 97.625 15.125C98.7917 15.125 99.5625 15.6771 99.9375 16.7812C100.312 17.8854 100.844 19.375 101.531 21.25C102.219 23.1042 102.99 25.1771 103.844 27.4688C104.698 29.7396 105.615 32.1562 106.594 34.7188C107.573 37.2604 108.552 39.8021 109.531 42.3438C110.51 44.8646 111.458 47.3125 112.375 49.6875C113.292 52.0625 114.125 54.2188 114.875 56.1562C115.625 58.0938 116.26 59.75 116.781 61.125C116.802 61.1875 116.823 61.2396 116.844 61.2812C116.677 57.1979 116.542 52.75 116.438 47.9375C116.333 42.0833 116.24 37.6979 116.156 34.7812C116.094 31.8646 116.021 28.9167 115.938 25.9375C115.875 22.9375 115.792 19.9688 115.688 17.0312C115.688 16.3646 115.865 15.875 116.219 15.5625C116.594 15.2292 117 15.0625 117.438 15.0625C117.875 15.0625 118.26 15.2292 118.594 15.5625C118.948 15.875 119.125 16.3646 119.125 17.0312ZM137.75 44.9688C137.062 44.4688 136.25 44.2188 135.312 44.2188C134.396 44.2188 133.552 44.4792 132.781 45C132.031 45.5 131.396 46.2083 130.875 47.125C129.812 48.9583 129.281 51.4792 129.281 54.6875C129.281 57.875 129.792 60.2292 130.812 61.75C131.833 63.2708 133.198 64.0312 134.906 64.0312C136.781 64.0312 138.281 62.9583 139.406 60.8125C140.406 58.8958 140.906 56.5417 140.906 53.75C140.906 49.4583 139.854 46.5312 137.75 44.9688ZM134.875 66.6875C133.688 66.7083 132.573 66.4688 131.531 65.9688C130.51 65.4479 129.625 64.6458 128.875 63.5625C127.229 61.2708 126.406 58.0104 126.406 53.7812C126.406 49.9896 127.292 47 129.062 44.8125C130.729 42.7292 132.938 41.6875 135.688 41.6875C138 41.6875 139.917 42.6875 141.438 44.6875C143 46.8125 143.781 49.7292 143.781 53.4375C143.781 57.5625 142.875 60.8542 141.062 63.3125C139.438 65.5208 137.375 66.6458 134.875 66.6875ZM162.344 52.25L162.312 45.6562C161.104 44.8854 159.958 44.5 158.875 44.5C157.812 44.5 156.875 44.7188 156.062 45.1562C155.271 45.5729 154.552 46.2083 153.906 47.0625C152.448 48.9583 151.719 51.4688 151.719 54.5938C151.719 58.9896 152.729 61.8854 154.75 63.2812C155.417 63.7396 156.177 63.9688 157.031 63.9688C157.885 63.9688 158.615 63.7917 159.219 63.4375C159.823 63.0833 160.333 62.6458 160.75 62.125C161.5 61.1667 162.01 60.0312 162.281 58.7188C162.323 57.0104 162.344 54.8542 162.344 52.25ZM164.875 21C164.854 22.5625 164.833 24.2188 164.812 25.9688C164.812 27.6979 164.812 31.4271 164.812 37.1562C164.812 42.8646 164.917 48.4062 165.125 53.7812C165.354 59.1354 165.51 62.0521 165.594 62.5312C165.698 63.0104 165.802 63.4167 165.906 63.75C166.031 64.0833 166.135 64.3542 166.219 64.5625C166.323 64.7708 166.375 65.0208 166.375 65.3125C166.375 65.6042 166.24 65.8646 165.969 66.0938C165.719 66.3438 165.438 66.4688 165.125 66.4688C163.771 66.4688 163.062 65.125 163 62.4375C163 62.375 163 62.3229 163 62.2812C161.625 65.2188 159.562 66.6875 156.812 66.6875C154.438 66.6875 152.521 65.7083 151.062 63.75C149.5 61.6458 148.719 58.6979 148.719 54.9062C148.719 50.9271 149.75 47.6875 151.812 45.1875C153.688 42.8958 155.906 41.75 158.469 41.75C159.906 41.75 161.135 42.0104 162.156 42.5312C162.135 41.0312 162.125 39.4792 162.125 37.875C162.104 35.875 162.083 33.8854 162.062 31.9062C162.042 29.9062 162.01 27.9688 161.969 26.0938C161.948 24.2188 161.927 22.4583 161.906 20.8125C161.865 17.375 161.812 15.0625 161.75 13.875C161.688 12.6875 161.844 11.9375 162.219 11.625C162.594 11.2917 163.01 11.125 163.469 11.125C163.948 11.125 164.375 11.2917 164.75 11.625C165.146 11.9375 165.302 12.5208 165.219 13.375C165.156 14.2292 165.094 15.3229 165.031 16.6562C164.969 17.9896 164.917 19.4375 164.875 21ZM185.656 52.5C185.698 48.875 184.938 46.3958 183.375 45.0625C182.75 44.5 181.99 44.2188 181.094 44.2188C180.198 44.2188 179.458 44.3854 178.875 44.7188C178.292 45.0521 177.771 45.5 177.312 46.0625C176.875 46.625 176.5 47.2708 176.188 48C175.896 48.7083 175.656 49.4375 175.469 50.1875C175.281 50.9792 175.146 51.7604 175.062 52.5312L179.344 52.7188C182.135 52.7188 184.24 52.6458 185.656 52.5ZM174.938 55.2188C174.979 58.0938 175.5 60.2917 176.5 61.8125C177.583 63.4375 179.115 64.25 181.094 64.25C182.906 64.25 184.229 63.3542 185.062 61.5625C185.583 60.3958 186.229 59.8125 187 59.8125C187.354 59.8125 187.646 59.9271 187.875 60.1562C188.125 60.3854 188.24 60.7917 188.219 61.375C188.198 61.9375 187.99 62.5521 187.594 63.2188C187.219 63.8854 186.688 64.4792 186 65C184.5 66.1667 182.698 66.75 180.594 66.75C178.323 66.75 176.365 65.7812 174.719 63.8438C172.99 61.8021 172.125 59.375 172.125 56.5625C172.125 53.75 172.365 51.4688 172.844 49.7188C173.344 47.9479 174 46.4792 174.812 45.3125C176.396 42.9583 178.375 41.7812 180.75 41.7812C183.792 41.7812 185.927 42.9792 187.156 45.375C188.01 47.0417 188.469 49.4896 188.531 52.7188C188.552 53.6354 188.406 54.25 188.094 54.5625C187.781 54.875 187.146 55.0312 186.188 55.0312L174.938 55.2188Z" fill="#5C209A"/>
<g clip-path="url(#clip0)">
<path d="M189.38 8.31225L188.284 3.05205L188.084 2.09058C188.032 1.84237 187.762 1.81413 187.579 1.68672C187.1 1.35309 186.436 0.946266 185.875 0.946266C185.385 0.946266 184.757 1.78102 184.395 2.13172C183.9 2.61158 183.658 3.34942 183.506 4.05361C183.359 4.7416 183.736 5.41442 183.469 6.13569C183.215 6.82106 182.587 7.33596 182.002 7.59045C180.739 8.14038 179.4 8.16775 178.134 7.57546C177.582 7.31731 176.956 6.91362 176.634 6.30337C176.287 5.64467 176.461 4.86779 176.461 4.14599C176.461 3.37626 176.146 2.7566 175.733 2.1814C175.57 1.95445 175.28 1.66406 175.077 1.48191C174.948 1.36547 174.399 0.879158 174.27 0.879158C173.644 0.879158 173.048 1.15404 172.512 1.52792C172.432 1.58353 171.967 1.86294 171.956 1.92116L171.784 2.80419C171.57 3.90528 171.355 5.00637 171.141 6.10745C171.052 6.56553 170.963 7.02343 170.874 7.48151C170.85 7.60823 170.712 7.98351 170.752 8.1111C170.802 8.27216 171.178 8.50485 171.289 8.60769L172.507 9.73284C172.753 9.96031 173.315 10.7238 173.647 10.7222L183.375 10.6772L187.601 10.6577C187.978 10.656 187.972 10.6941 188.199 10.322L189 9.00441C189.123 8.80205 189.342 8.55523 189.38 8.31225" fill="#5C209A"/>
<path d="M189.38 8.31225L188.284 3.05205L188.084 2.09058C188.032 1.84237 187.762 1.81413 187.579 1.68672C187.1 1.35309 186.436 0.946266 185.875 0.946266C185.385 0.946266 184.757 1.78102 184.395 2.13172C183.9 2.61158 183.658 3.34942 183.506 4.05361C183.359 4.7416 183.736 5.41442 183.469 6.13569C183.215 6.82106 182.587 7.33596 182.002 7.59045C180.739 8.14038 179.4 8.16775 178.134 7.57546C177.582 7.31731 176.956 6.91362 176.634 6.30337C176.287 5.64467 176.461 4.86779 176.461 4.14599C176.461 3.37626 176.146 2.7566 175.733 2.1814C175.57 1.95445 175.28 1.66406 175.077 1.48191C174.948 1.36547 174.399 0.879158 174.27 0.879158C173.644 0.879158 173.048 1.15404 172.512 1.52792C172.432 1.58353 171.967 1.86294 171.956 1.92116L171.784 2.80419C171.57 3.90528 171.355 5.00637 171.141 6.10745C171.052 6.56553 170.963 7.02343 170.874 7.48151C170.85 7.60823 170.712 7.98351 170.752 8.1111C170.802 8.27216 171.178 8.50485 171.289 8.60769L172.507 9.73284C172.753 9.96031 173.315 10.7238 173.647 10.7222L183.375 10.6772L187.555 10.6579C187.825 10.6567 187.95 10.7306 188.105 10.4761L189.38 8.37883" fill="#5C209A"/>
<path d="M189.38 8.31225L188.284 3.05205L188.084 2.09058C188.032 1.84237 187.762 1.81413 187.579 1.68672C187.1 1.35309 186.436 0.946266 185.875 0.946266C185.385 0.946266 184.757 1.78102 184.395 2.13172C183.9 2.61158 183.658 3.34942 183.506 4.05361C183.359 4.7416 183.736 5.41442 183.469 6.13569C183.215 6.82106 182.587 7.33596 182.002 7.59045C180.739 8.14038 179.4 8.16775 178.134 7.57546C177.582 7.31731 176.956 6.91362 176.634 6.30337C176.287 5.64467 176.461 4.86779 176.461 4.14599C176.461 3.37626 176.146 2.7566 175.733 2.1814C175.57 1.95445 175.28 1.66406 175.077 1.48191C174.948 1.36547 174.399 0.879158 174.27 0.879158C173.644 0.879158 173.048 1.15404 172.512 1.52792C172.432 1.58353 171.967 1.86294 171.956 1.92116L171.784 2.80419C171.57 3.90528 171.355 5.00637 171.141 6.10745C171.052 6.56553 170.963 7.02343 170.874 7.48151C170.85 7.60823 170.712 7.98351 170.752 8.1111C170.802 8.27216 171.178 8.50485 171.289 8.60769L172.507 9.73284C172.753 9.96031 173.315 10.7238 173.647 10.7222L183.375 10.6772L187.555 10.6579C187.825 10.6567 187.95 10.7306 188.105 10.4761L189.38 8.37883" stroke="white" stroke-width="0.1" stroke-miterlimit="10" stroke-linecap="square"/>
<path d="M179.46 12.4638C178.934 11.9367 178.011 11.9628 177.36 12.057C176.615 12.1645 175.803 12.0619 175.051 12.0619C174.292 12.0619 173.528 12.0439 172.771 11.9953C172.38 11.9702 170.619 11.8067 171.329 10.9909C170.629 11.3964 168.797 11.414 168.906 10.0532C168.321 10.2473 167.723 10.3289 167.118 10.1872C166.716 10.0929 165.553 9.6824 166.022 8.98204C165.443 8.93986 162.463 8.64929 163.543 7.24091C162.977 7.14242 162.345 6.91443 161.834 6.61724C161.315 6.31604 160.7 6.08508 160.277 5.59197C160.047 5.32441 159.824 5.0708 160.242 4.87645C160.601 4.70929 160.94 4.69622 161.323 4.69622C162.042 4.69622 162.74 4.74049 163.464 4.70563C166.141 4.57595 168.706 3.77466 171.098 2.38632L171.963 1.88414C171.535 2.52193 172.384 2.9366 172.792 3.01539C173.264 3.10672 173.767 2.99377 174.212 2.82156C174.212 3.31258 174.179 3.72045 174.5 4.09382C174.709 4.33645 175.2 4.44975 175.48 4.29497C175.559 5.02513 175.603 5.80288 175.936 6.44869C176.302 7.15689 176.747 7.67475 177.35 8.11226C178.238 8.75719 179.809 8.99459 180.729 8.84818C181.772 8.68224 183.331 8.16054 183.855 6.94459C184.187 6.17537 184.359 5.46281 184.456 4.61203C184.497 4.26185 184.811 4.49263 185.054 4.42866C185.3 4.36382 185.62 4.12693 185.703 3.8409C185.798 3.51808 185.794 3.28783 185.747 2.9556C186.495 3.10027 188.383 3.47346 188.054 1.95125C189.282 2.66399 190.496 3.32234 191.79 3.85955C193.045 4.38038 194.435 4.55747 195.755 4.70319C196.411 4.77553 197.084 4.84717 197.742 4.83043C198.39 4.81405 199.16 4.65874 199.773 4.94356C200.494 5.27857 199.225 6.11855 198.953 6.30366C198.459 6.6406 197.882 6.8407 197.339 7.03993C197.047 7.14695 196.776 7.23794 196.474 7.30819C196.954 7.88967 196.428 8.49102 195.95 8.69949C195.316 8.97559 194.664 9.00052 193.993 9.04898C194.459 9.7394 193.283 10.1809 192.882 10.2475C192.239 10.3542 191.681 10.3031 191.052 10.1204C191.346 10.7558 190.47 11.1412 190.117 11.305C189.698 11.4995 189.061 11.2747 188.688 11.0578C188.949 11.6107 188.718 11.6996 188.271 11.9076C187.936 12.0638 187.447 12.0348 187.089 12.0727C186.198 12.1666 185.285 12.1964 184.39 12.1964C183.559 12.1964 182.721 12.1291 181.886 12.1291C181.504 12.1291 181.086 12.1492 180.729 12.3303C180.493 12.4497 180.532 12.5333 180.264 12.5159L179.46 12.4638" fill="#5C209A"/>
<path d="M179.46 12.4638C178.934 11.9367 178.011 11.9628 177.36 12.057C176.615 12.1645 175.803 12.0619 175.051 12.0619C174.292 12.0619 173.528 12.0439 172.771 11.9953C172.38 11.9702 170.619 11.8067 171.329 10.9909C170.629 11.3964 168.797 11.414 168.906 10.0532C168.321 10.2473 167.723 10.3289 167.118 10.1872C166.716 10.0929 165.553 9.6824 166.022 8.98204C165.443 8.93986 162.463 8.64929 163.543 7.24091C162.977 7.14242 162.345 6.91443 161.834 6.61724C161.315 6.31604 160.7 6.08508 160.277 5.59197C160.047 5.32441 159.824 5.0708 160.242 4.87645C160.601 4.70929 160.94 4.69622 161.323 4.69622C162.042 4.69622 162.74 4.74049 163.464 4.70563C166.141 4.57595 168.706 3.77466 171.098 2.38632L171.963 1.88414C171.535 2.52193 172.384 2.9366 172.792 3.01539C173.264 3.10672 173.767 2.99377 174.212 2.82156C174.212 3.31258 174.179 3.72045 174.5 4.09382C174.709 4.33645 175.2 4.44975 175.48 4.29497C175.559 5.02513 175.603 5.80288 175.936 6.44869C176.302 7.15689 176.747 7.67475 177.35 8.11226C178.238 8.75719 179.809 8.99459 180.729 8.84818C181.772 8.68224 183.331 8.16054 183.855 6.94459C184.187 6.17537 184.359 5.46281 184.456 4.61203C184.497 4.26185 184.811 4.49263 185.054 4.42866C185.3 4.36382 185.62 4.12693 185.703 3.8409C185.798 3.51808 185.794 3.28783 185.747 2.9556C186.495 3.10027 188.383 3.47346 188.054 1.95125C189.282 2.66399 190.496 3.32234 191.79 3.85955C193.045 4.38038 194.435 4.55747 195.755 4.70319C196.411 4.77553 197.084 4.84717 197.742 4.83043C198.39 4.81405 199.16 4.65874 199.773 4.94356C200.494 5.27857 199.225 6.11855 198.953 6.30366C198.459 6.6406 197.882 6.8407 197.339 7.03993C197.047 7.14695 196.776 7.23794 196.474 7.30819C196.954 7.88967 196.428 8.49102 195.95 8.69949C195.316 8.97559 194.664 9.00052 193.993 9.04898C194.459 9.7394 193.283 10.1809 192.882 10.2475C192.239 10.3542 191.681 10.3031 191.052 10.1204C191.346 10.7558 190.47 11.1412 190.117 11.305C189.698 11.4995 189.061 11.2747 188.688 11.0578C188.949 11.6107 188.718 11.6996 188.271 11.9076C187.936 12.0638 187.447 12.0348 187.089 12.0727C186.198 12.1666 185.285 12.1964 184.39 12.1964C183.559 12.1964 182.721 12.1291 181.886 12.1291C181.504 12.1291 181.086 12.1492 180.729 12.3303C180.493 12.4497 180.532 12.5333 180.264 12.5159L179.46 12.4638" fill="#5C209A"/>
<path d="M179.46 12.4638C178.934 11.9367 178.011 11.9628 177.36 12.057C176.615 12.1645 175.803 12.0619 175.051 12.0619C174.292 12.0619 173.528 12.0439 172.771 11.9953C172.38 11.9702 170.619 11.8067 171.329 10.9909C170.629 11.3964 168.797 11.414 168.906 10.0532C168.321 10.2473 167.723 10.3289 167.118 10.1872C166.716 10.0929 165.553 9.6824 166.022 8.98204C165.443 8.93986 162.463 8.64929 163.543 7.24091C162.977 7.14242 162.345 6.91443 161.834 6.61724C161.315 6.31604 160.7 6.08508 160.277 5.59197C160.047 5.32441 159.824 5.0708 160.242 4.87645C160.601 4.70929 160.94 4.69622 161.323 4.69622C162.042 4.69622 162.74 4.74049 163.464 4.70563C166.141 4.57595 168.706 3.77466 171.098 2.38632L171.963 1.88414C171.535 2.52193 172.384 2.9366 172.792 3.01539C173.264 3.10672 173.767 2.99377 174.212 2.82156C174.212 3.31258 174.179 3.72045 174.5 4.09382C174.709 4.33645 175.2 4.44975 175.48 4.29497C175.559 5.02513 175.603 5.80288 175.936 6.44869C176.302 7.15689 176.747 7.67475 177.35 8.11226C178.238 8.75719 179.809 8.99459 180.729 8.84818C181.772 8.68224 183.331 8.16054 183.855 6.94459C184.187 6.17537 184.359 5.46281 184.456 4.61203C184.497 4.26185 184.811 4.49263 185.054 4.42866C185.3 4.36382 185.62 4.12693 185.703 3.8409C185.798 3.51808 185.794 3.28783 185.747 2.9556C186.495 3.10027 188.383 3.47346 188.054 1.95125C189.282 2.66399 190.496 3.32234 191.79 3.85955C193.045 4.38038 194.435 4.55747 195.755 4.70319C196.411 4.77553 197.084 4.84717 197.742 4.83043C198.39 4.81405 199.16 4.65874 199.773 4.94356C200.494 5.27857 199.225 6.11855 198.953 6.30366C198.459 6.6406 197.882 6.8407 197.339 7.03993C197.047 7.14695 196.776 7.23794 196.474 7.30819C196.954 7.88967 196.428 8.49102 195.95 8.69949C195.316 8.97559 194.664 9.00052 193.993 9.04898C194.459 9.7394 193.283 10.1809 192.882 10.2475C192.239 10.3542 191.681 10.3031 191.052 10.1204C191.346 10.7558 190.47 11.1412 190.117 11.305C189.698 11.4995 189.061 11.2747 188.688 11.0578C188.949 11.6107 188.718 11.6996 188.271 11.9076C187.936 12.0638 187.447 12.0348 187.089 12.0727C186.198 12.1666 185.285 12.1964 184.39 12.1964C183.559 12.1964 182.721 12.1291 181.886 12.1291C181.504 12.1291 181.086 12.1492 180.729 12.3303C180.493 12.4497 180.532 12.5333 180.264 12.5159L179.46 12.4638" stroke="white" stroke-width="0.1" stroke-miterlimit="10" stroke-linecap="square"/>
<path d="M179.172 30.4099C179.369 30.4373 179.453 30.0257 179.576 29.8741C179.782 29.6193 180.064 29.4294 180.313 29.2368C180.789 28.868 181.288 28.4453 181.789 28.1537C182.343 27.8318 182.843 27.5435 183.267 26.9947C183.387 26.8396 184.144 25.2538 183.799 25.2538H182.562C182.037 25.2538 182.228 25.2576 181.995 25.7064C181.663 26.347 181.179 26.8445 180.614 27.1957C179.501 27.8886 178.51 28.5309 177.921 29.8995C177.728 30.3496 177.788 30.8601 177.788 31.3478L179.23 30.477L179.172 30.4099Z" fill="#5C209A"/>
<path d="M182.057 25.1871C182.057 26.6332 180.461 27.2026 179.576 27.7986C179.11 28.113 178.511 28.702 178.232 29.2397C177.854 29.9683 177.788 30.5094 177.788 31.3481" fill="#5C209A"/>
<path d="M182.057 25.1871C182.057 26.6332 180.461 27.2026 179.576 27.7986C179.11 28.113 178.511 28.702 178.232 29.2397C177.854 29.9683 177.788 30.5094 177.788 31.3481" stroke="white" stroke-width="0.1" stroke-miterlimit="10" stroke-linecap="square"/>
<path d="M179.173 30.4093C179.37 30.4367 179.454 30.0252 179.577 29.8735C179.768 29.6373 180.034 29.4435 180.269 29.2709C180.742 28.9225 181.22 28.4843 181.71 28.1993C182.777 27.5789 183.844 26.793 183.844 25.2532" fill="#5C209A"/>
<path d="M179.173 30.4093C179.37 30.4367 179.454 30.0252 179.577 29.8735C179.768 29.6373 180.034 29.4435 180.269 29.2709C180.742 28.9225 181.22 28.4843 181.71 28.1993C182.777 27.5789 183.844 26.793 183.844 25.2532" stroke="white" stroke-width="0.1" stroke-miterlimit="10" stroke-linecap="square"/>
<path d="M179.288 34.829C179.258 34.2085 179.981 33.489 180.325 33.0881C179.998 32.9082 179.671 32.7281 179.343 32.5481C179.112 32.4207 178.915 32.9181 178.756 33.1029C178.398 33.5174 178.028 34.295 178.076 34.8962L179.288 34.829Z" fill="#5C209A"/>
<path d="M179.288 34.8298C179.259 34.2092 179.982 33.4897 180.326 33.0888C179.999 32.9089 179.671 32.7289 179.344 32.5488C179.112 32.4214 178.916 32.9189 178.756 33.1036C178.399 33.5181 178.028 34.2957 178.077 34.8969" fill="#5C209A"/>
<path d="M179.288 34.8298C179.259 34.2092 179.982 33.4897 180.326 33.0888C179.999 32.9089 179.671 32.7289 179.344 32.5488C179.112 32.4214 178.916 32.9189 178.756 33.1036C178.399 33.5181 178.028 34.2957 178.077 34.8969" stroke="white" stroke-width="0.1" stroke-miterlimit="10" stroke-linecap="square"/>
<path d="M180.325 35.7667C180.93 35.67 181.459 35.1052 181.71 34.4944C181.898 34.0374 181.835 34.029 181.439 33.8974L179.945 33.4019C179.739 33.3334 179.611 33.7291 179.561 33.9612C179.506 34.2133 179.197 34.7148 179.229 34.9631C179.258 35.1859 179.592 35.3489 179.761 35.4146C179.916 35.4747 180.338 35.8821 180.325 35.7667" fill="#5C209A"/>
<path d="M180.326 35.7676C180.891 35.6771 181.967 34.7996 181.825 34.0266Z" fill="#5C209A"/>
<path d="M180.326 35.7676C180.891 35.6771 181.967 34.7996 181.825 34.0266" stroke="white" stroke-width="0.1" stroke-miterlimit="10" stroke-linecap="square"/>
<path d="M194.282 4.96423C195.401 5.28774 196.679 5.46937 197.825 5.30396C198.057 5.27049 199.314 5.04319 199.473 5.23197C199.759 5.57117 198.432 6.25688 198.235 6.35519C197.842 6.55041 197.324 6.83889 196.891 6.83889H195.07C194.493 6.83889 193.864 6.62136 193.299 6.48976C192.878 6.39197 191.997 6.31057 191.687 5.96858" fill="#5C209A"/>
<path d="M194.282 4.96423C195.401 5.28774 196.679 5.46937 197.825 5.30396C198.057 5.27049 199.314 5.04319 199.473 5.23197C199.759 5.57117 198.432 6.25688 198.235 6.35519C197.842 6.55041 197.324 6.83889 196.891 6.83889H195.07C194.493 6.83889 193.864 6.62136 193.299 6.48976C192.878 6.39197 191.997 6.31057 191.687 5.96858" stroke="white" stroke-width="0.1" stroke-miterlimit="10" stroke-linecap="square"/>
<path d="M190.13 7.03968C190.679 7.62971 191.726 7.89343 192.414 8.19324C193.195 8.53348 194.104 8.58019 194.93 8.58019C195.284 8.58019 195.732 8.37416 196.026 8.14617C196.466 7.80401 196.086 7.3747 195.689 7.3747C194.788 7.3747 193.958 7.14409 193.072 6.97327" fill="#5C209A"/>
<path d="M190.13 7.03968C190.679 7.62971 191.726 7.89343 192.414 8.19324C193.195 8.53348 194.104 8.58019 194.93 8.58019C195.284 8.58019 195.732 8.37416 196.026 8.14617C196.466 7.80401 196.086 7.3747 195.689 7.3747C194.788 7.3747 193.958 7.14409 193.072 6.97327" stroke="white" stroke-width="0.1" stroke-miterlimit="10" stroke-linecap="square"/>
<path d="M189.9 7.77649C190.409 8.1312 190.959 8.3428 191.521 8.56034C191.81 8.67242 192.097 8.78345 192.38 8.91488C192.589 9.01179 193.027 9.06129 193.187 9.24972C193.665 9.81656 192.269 9.80488 192.033 9.78518C191.476 9.73899 191.057 9.48032 190.534 9.31665" fill="#5C209A"/>
<path d="M189.9 7.77649C190.409 8.1312 190.959 8.3428 191.521 8.56034C191.81 8.67242 192.097 8.78345 192.38 8.91488C192.589 9.01179 193.027 9.06129 193.187 9.24972C193.665 9.81656 192.269 9.80488 192.033 9.78518C191.476 9.73899 191.057 9.48032 190.534 9.31665" stroke="white" stroke-width="0.1" stroke-miterlimit="10" stroke-linecap="square"/>
<path d="M188.054 8.44594C188.463 8.68526 190.953 9.6415 190.361 10.5217C190.022 11.0262 189.072 10.6927 188.667 10.5357C188.111 10.3199 187.599 10.0722 187.073 9.78513" fill="#5C209A"/>
<path d="M188.054 8.44594C188.463 8.68526 190.953 9.6415 190.361 10.5217C190.022 11.0262 189.072 10.6927 188.667 10.5357C188.111 10.3199 187.599 10.0722 187.073 9.78513" stroke="white" stroke-width="0.1" stroke-miterlimit="10" stroke-linecap="square"/>
<path d="M186.266 9.98633C186.63 10.3362 187.187 10.4357 187.593 10.7226C187.852 10.906 188.528 11.5934 187.823 11.5934C187.601 11.5934 187.375 11.6923 187.131 11.6604C186.838 11.6222 186.563 11.4845 186.288 11.3783C185.695 11.1496 185.223 10.7193 184.709 10.3212" fill="#5C209A"/>
<path d="M186.266 9.98633C186.63 10.3362 187.187 10.4357 187.593 10.7226C187.852 10.906 188.528 11.5934 187.823 11.5934C187.601 11.5934 187.375 11.6923 187.131 11.6604C186.838 11.6222 186.563 11.4845 186.288 11.3783C185.695 11.1496 185.223 10.7193 184.709 10.3212" stroke="white" stroke-width="0.1" stroke-miterlimit="10" stroke-linecap="square"/>
<path d="M189.207 2.95518C189.844 3.32663 190.516 3.56316 191.167 3.8926C191.617 4.1199 192.564 4.79219 191.514 4.96423C190.027 5.20791 188.431 4.38955 187.073 3.75856" fill="#5C209A"/>
<path d="M189.207 2.95518C189.844 3.32663 190.516 3.56316 191.167 3.8926C191.617 4.1199 192.564 4.79219 191.514 4.96423C190.027 5.20791 188.431 4.38955 187.073 3.75856" stroke="white" stroke-width="0.1" stroke-miterlimit="10" stroke-linecap="square"/>
<path d="M187.996 4.62939C188.498 4.94924 189.098 5.08171 189.611 5.36566C189.795 5.46728 190.266 5.61805 190.361 5.83437C190.479 6.10071 190.285 6.06463 190.059 6.15195C189.434 6.39441 188.809 5.9705 188.248 5.75349C187.619 5.51016 187.014 5.0784 186.439 4.69597" fill="#5C209A"/>
<path d="M187.996 4.62939C188.498 4.94924 189.098 5.08171 189.611 5.36566C189.795 5.46728 190.266 5.61805 190.361 5.83437C190.479 6.10071 190.285 6.06463 190.059 6.15195C189.434 6.39441 188.809 5.9705 188.248 5.75349C187.619 5.51016 187.014 5.0784 186.439 4.69597" stroke="white" stroke-width="0.1" stroke-miterlimit="10" stroke-linecap="square"/>
<path d="M185.689 4.89723C186.271 5.25473 186.922 5.51636 187.471 5.94097C187.753 6.15955 188.918 6.61623 188.861 7.10673C188.791 7.7147 187.654 7.30997 187.383 7.15292C186.752 6.78618 186.209 6.25367 185.574 5.90158" fill="#5C209A"/>
<path d="M185.689 4.89723C186.271 5.25473 186.922 5.51636 187.471 5.94097C187.753 6.15955 188.918 6.61623 188.861 7.10673C188.791 7.7147 187.654 7.30997 187.383 7.15292C186.752 6.78618 186.209 6.25367 185.574 5.90158" stroke="white" stroke-width="0.1" stroke-miterlimit="10" stroke-linecap="square"/>
<path d="M185.747 6.70483C186.05 7.12177 186.502 7.45121 186.842 7.8434C187.043 8.07487 187.436 8.51308 186.958 8.51308C186.182 8.51308 185.193 7.62133 184.708 6.97309" fill="#5C209A"/>
<path d="M185.747 6.70483C186.05 7.12177 186.502 7.45121 186.842 7.8434C187.043 8.07487 187.436 8.51308 186.958 8.51308C186.182 8.51308 185.193 7.62133 184.708 6.97309" stroke="white" stroke-width="0.1" stroke-miterlimit="10" stroke-linecap="square"/>
<path d="M184.19 7.30774C184.335 7.60267 185.83 8.88468 185.546 9.21621C185.153 9.67394 184.305 8.88521 183.959 8.64693" fill="#5C209A"/>
<path d="M184.19 7.30774C184.335 7.60267 185.83 8.88468 185.546 9.21621C185.153 9.67394 184.305 8.88521 183.959 8.64693" stroke="white" stroke-width="0.1" stroke-miterlimit="10" stroke-linecap="square"/>
<path d="M183.094 8.44594C183.21 8.57179 184.074 9.85206 183.642 9.85206C183.36 9.85206 182.742 9.72464 182.633 9.45029" fill="#5C209A"/>
<path d="M183.094 8.44594C183.21 8.57179 184.074 9.85206 183.642 9.85206C183.36 9.85206 182.742 9.72464 182.633 9.45029" stroke="white" stroke-width="0.1" stroke-miterlimit="10" stroke-linecap="square"/>
<path d="M181.651 9.24964C181.791 9.53428 182.056 9.71939 182.056 10.0532C182.056 10.4131 181.766 10.5583 181.479 10.589" fill="#5C209A"/>
<path d="M181.651 9.24964C181.791 9.53428 182.056 9.71939 182.056 10.0532C182.056 10.4131 181.766 10.5583 181.479 10.589" stroke="white" stroke-width="0.1" stroke-miterlimit="10" stroke-linecap="square"/>
<path d="M182.517 11.1244C182.371 11.0276 182.036 11.0013 181.883 11.0909C181.706 11.1943 181.527 11.5548 181.825 11.6604" fill="#5C209A"/>
<path d="M182.517 11.1244C182.371 11.0276 182.036 11.0013 181.883 11.0909C181.706 11.1943 181.527 11.5548 181.825 11.6604" stroke="white" stroke-width="0.1" stroke-miterlimit="10" stroke-linecap="square"/>
<path d="M183.325 10.12C183.14 10.2167 182.88 10.1153 182.748 10.3212C182.646 10.4798 182.699 10.7283 182.863 10.8232C183.018 10.9126 183.101 11.0531 183.267 11.1245C183.507 11.2277 183.77 11.1916 184.03 11.1916C184.45 11.1916 185.181 11.3407 184.535 10.7228C184.167 10.3694 183.797 10.1871 183.325 10.1871" fill="#5C209A"/>
<path d="M183.325 10.12C183.14 10.2167 182.88 10.1153 182.748 10.3212C182.646 10.4798 182.699 10.7283 182.863 10.8232C183.018 10.9126 183.101 11.0531 183.267 11.1245C183.507 11.2277 183.77 11.1916 184.03 11.1916C184.45 11.1916 185.181 11.3407 184.535 10.7228C184.167 10.3694 183.797 10.1871 183.325 10.1871" stroke="white" stroke-width="0.1" stroke-miterlimit="10" stroke-linecap="square"/>
<path d="M187.016 1.81672C186.551 1.84426 186.189 1.72242 185.748 1.95076C185.303 2.18084 184.995 2.62323 184.651 3.02204C184.933 2.53276 185.176 1.78534 185.631 1.48205C185.801 1.36927 186.158 1.23227 186.354 1.36893C186.497 1.46828 186.995 1.89271 187.016 1.81672" fill="#5C209A"/>
<path d="M165.676 4.89723C164.531 5.27687 163.339 5.2319 162.158 5.2319C161.813 5.2319 160.763 4.91082 160.514 5.19825C160.261 5.49091 161.626 6.21062 161.782 6.28836C162.837 6.81389 163.805 6.81529 164.947 6.71314C165.549 6.65928 166.127 6.56028 166.718 6.42258C167.138 6.32497 168.02 6.24339 168.329 5.9014" fill="#5C209A"/>
<path d="M165.676 4.89723C164.531 5.27687 163.339 5.2319 162.158 5.2319C161.813 5.2319 160.763 4.91082 160.514 5.19825C160.261 5.49091 161.626 6.21062 161.782 6.28836C162.837 6.81389 163.805 6.81529 164.947 6.71314C165.549 6.65928 166.127 6.56028 166.718 6.42258C167.138 6.32497 168.02 6.24339 168.329 5.9014" stroke="white" stroke-width="0.1" stroke-miterlimit="10" stroke-linecap="square"/>
<path d="M169.829 6.97293C168.483 7.98268 166.762 8.51291 165.17 8.51291C164.802 8.51291 164.296 8.31473 163.991 8.07872C163.523 7.71669 163.914 7.35849 164.292 7.30759C165.186 7.1875 166.048 7.0796 166.945 6.90564" fill="#5C209A"/>
<path d="M169.829 6.97293C168.483 7.98268 166.762 8.51291 165.17 8.51291C164.802 8.51291 164.296 8.31473 163.991 8.07872C163.523 7.71669 163.914 7.35849 164.292 7.30759C165.186 7.1875 166.048 7.0796 166.945 6.90564" stroke="white" stroke-width="0.1" stroke-miterlimit="10" stroke-linecap="square"/>
<path d="M170.06 7.70935C169.517 8.00672 169.011 8.27114 168.438 8.4932C168.15 8.60511 167.869 8.73688 167.58 8.84791C167.405 8.91502 166.894 9.0203 166.772 9.18276C166.346 9.75291 167.819 9.76563 168.043 9.70097C168.272 9.6349 168.585 9.67081 168.791 9.55089C168.983 9.43846 169.258 9.3215 169.483 9.24969" fill="#5C209A"/>
<path d="M170.06 7.70935C169.517 8.00672 169.011 8.27114 168.438 8.4932C168.15 8.60511 167.869 8.73688 167.58 8.84791C167.405 8.91502 166.894 9.0203 166.772 9.18276C166.346 9.75291 167.819 9.76563 168.043 9.70097C168.272 9.6349 168.585 9.67081 168.791 9.55089C168.983 9.43846 169.258 9.3215 169.483 9.24969" stroke="white" stroke-width="0.1" stroke-miterlimit="10" stroke-linecap="square"/>
<path d="M171.905 8.37903C171.443 8.64764 169.138 9.46269 169.656 10.3879C169.958 10.9265 170.939 10.6283 171.35 10.4688C171.903 10.2542 172.422 10.021 172.944 9.71822" fill="#5C209A"/>
<path d="M171.905 8.37903C171.443 8.64764 169.138 9.46269 169.656 10.3879C169.958 10.9265 170.939 10.6283 171.35 10.4688C171.903 10.2542 172.422 10.021 172.944 9.71822" stroke="white" stroke-width="0.1" stroke-miterlimit="10" stroke-linecap="square"/>
<path d="M173.693 9.9192C173.272 10.1517 172.82 10.3658 172.424 10.656C172.168 10.8435 171.482 11.5265 172.193 11.5265C172.74 11.5265 173.195 11.557 173.738 11.3048C174.327 11.0311 174.802 10.7079 175.25 10.1871" fill="#5C209A"/>
<path d="M173.693 9.9192C173.272 10.1517 172.82 10.3658 172.424 10.656C172.168 10.8435 171.482 11.5265 172.193 11.5265C172.74 11.5265 173.195 11.557 173.738 11.3048C174.327 11.0311 174.802 10.7079 175.25 10.1871" stroke="white" stroke-width="0.1" stroke-miterlimit="10" stroke-linecap="square"/>
<path d="M170.752 2.88819C170.502 3.1364 170.093 3.20002 169.802 3.40292C169.509 3.60668 169.121 3.66664 168.812 3.84652C168.566 3.99033 168.151 4.02379 168.041 4.36125C167.952 4.63595 168.201 4.89724 168.49 4.89724C170.043 4.89724 171.507 4.35881 172.944 3.69157" fill="#5C209A"/>
<path d="M170.752 2.88819C170.502 3.1364 170.093 3.20002 169.802 3.40292C169.509 3.60668 169.121 3.66664 168.812 3.84652C168.566 3.99033 168.151 4.02379 168.041 4.36125C167.952 4.63595 168.201 4.89724 168.49 4.89724C170.043 4.89724 171.507 4.35881 172.944 3.69157" stroke="white" stroke-width="0.1" stroke-miterlimit="10" stroke-linecap="square"/>
<path d="M171.963 4.56226C171.668 4.84673 171.002 5.04178 170.638 5.14741C170.242 5.26227 169.803 5.56504 169.541 5.90163C169.999 6.28893 171.017 6.15943 171.488 5.83086C172.146 5.37191 172.904 5.07612 173.578 4.62937" fill="#5C209A"/>
<path d="M171.963 4.56226C171.668 4.84673 171.002 5.04178 170.638 5.14741C170.242 5.26227 169.803 5.56504 169.541 5.90163C169.999 6.28893 171.017 6.15943 171.488 5.83086C172.146 5.37191 172.904 5.07612 173.578 4.62937" stroke="white" stroke-width="0.1" stroke-miterlimit="10" stroke-linecap="square"/>
<path d="M174.27 4.83007C173.779 5.28256 173.025 5.55274 172.46 5.88061C172.192 6.03661 171.008 6.64162 171.155 7.10685C171.331 7.6648 172.436 7.20045 172.719 7.03608C173.252 6.72686 173.949 6.29929 174.386 5.83442" fill="#5C209A"/>
<path d="M174.27 4.83007C173.779 5.28256 173.025 5.55274 172.46 5.88061C172.192 6.03661 171.008 6.64162 171.155 7.10685C171.331 7.6648 172.436 7.20045 172.719 7.03608C173.252 6.72686 173.949 6.29929 174.386 5.83442" stroke="white" stroke-width="0.1" stroke-miterlimit="10" stroke-linecap="square"/>
<path d="M174.212 6.63806C173.912 7.04506 173.484 7.30129 173.174 7.70917C173.062 7.85558 172.592 8.44596 173.001 8.44596C173.893 8.44596 174.73 7.50976 175.308 6.83886" fill="#5C209A"/>
<path d="M174.212 6.63806C173.912 7.04506 173.484 7.30129 173.174 7.70917C173.062 7.85558 172.592 8.44596 173.001 8.44596C173.893 8.44596 174.73 7.50976 175.308 6.83886" stroke="white" stroke-width="0.1" stroke-miterlimit="10" stroke-linecap="square"/>
<path d="M175.769 7.24084C175.512 7.967 174.443 8.28441 174.443 9.14914C174.443 9.38846 175.1 9.17424 175.206 9.13293C175.531 9.0069 175.764 8.78798 176 8.51292" fill="#5C209A"/>
<path d="M175.769 7.24084C175.512 7.967 174.443 8.28441 174.443 9.14914C174.443 9.38846 175.1 9.17424 175.206 9.13293C175.531 9.0069 175.764 8.78798 176 8.51292" stroke="white" stroke-width="0.1" stroke-miterlimit="10" stroke-linecap="square"/>
<path d="M176.865 8.37903C176.727 8.64781 176.001 9.54374 176.289 9.78516C176.536 9.99293 177.19 9.48709 177.385 9.38338" fill="#5C209A"/>
<path d="M176.865 8.37903C176.727 8.64781 176.001 9.54374 176.289 9.78516C176.536 9.99293 177.19 9.48709 177.385 9.38338" stroke="white" stroke-width="0.1" stroke-miterlimit="10" stroke-linecap="square"/>
<path d="M178.306 9.18274C178.193 9.46302 177.903 9.64064 177.903 9.98611C177.903 10.3243 178.287 10.4051 178.537 10.5218" fill="#5C209A"/>
<path d="M178.306 9.18274C178.193 9.46302 177.903 9.64064 177.903 9.98611C177.903 10.3243 178.287 10.4051 178.537 10.5218" stroke="white" stroke-width="0.1" stroke-miterlimit="10" stroke-linecap="square"/>
<path d="M177.442 11.0574C177.664 10.972 177.848 10.8643 178.076 10.9908C178.324 11.1284 178.396 11.379 178.134 11.5934" fill="#5C209A"/>
<path d="M177.442 11.0574C177.664 10.972 177.848 10.8643 178.076 10.9908C178.324 11.1284 178.396 11.379 178.134 11.5934" stroke="white" stroke-width="0.1" stroke-miterlimit="10" stroke-linecap="square"/>
<path d="M176.634 10.053C177.16 9.94462 177.506 10.3396 177.096 10.7897C176.758 11.1608 176.393 11.1243 175.942 11.1243C175.491 11.1243 174.798 11.2007 175.459 10.6244C175.85 10.2838 176.207 10.1198 176.692 10.1198" fill="#5C209A"/>
<path d="M176.634 10.053C177.16 9.94462 177.506 10.3396 177.096 10.7897C176.758 11.1608 176.393 11.1243 175.942 11.1243C175.491 11.1243 174.798 11.2007 175.459 10.6244C175.85 10.2838 176.207 10.1198 176.692 10.1198" stroke="white" stroke-width="0.1" stroke-miterlimit="10" stroke-linecap="square"/>
<path d="M172.944 1.74964C173.387 1.74964 173.844 1.58544 174.27 1.81692C174.688 2.04369 175.028 2.54848 175.308 2.95531C175.097 2.46638 174.773 1.74598 174.385 1.41497C173.892 0.993323 173.393 1.45157 172.944 1.74964" fill="#5C209A"/>
<path d="M176.231 19.6961C176.085 18.2762 178.132 17.9093 178.994 17.8564C180.542 17.762 182.075 17.6513 183.617 17.4721C184.886 17.3246 186.318 16.8101 187.188 15.6985C188.033 14.6199 187.257 12.4284 186.146 11.9431C184.92 11.408 183.733 10.9109 182.506 11.7249C182.295 11.8654 181.894 12.0243 181.81 12.3153C181.711 12.6597 182.125 12.8903 182.38 12.9398C183.052 13.0698 183.689 13.0792 184.367 13.0233C184.941 12.9759 185.842 13.1685 185.94 13.9682C186.048 14.8465 185.478 15.4282 184.834 15.7273C184.274 15.9872 183.456 15.9701 182.857 16.079C182.197 16.1988 181.541 16.2673 180.877 16.3442C180.276 16.4139 179.657 16.3557 179.057 16.4146C178.411 16.4779 177.801 16.5193 177.157 16.6684C175.806 16.9814 174.558 18.1442 174.558 19.8297L176.231 19.6961" fill="#5C209A"/>
<path d="M176.231 19.6961C176.085 18.2762 178.132 17.9093 178.994 17.8564C180.542 17.762 182.075 17.6513 183.617 17.4721C184.886 17.3246 186.318 16.8101 187.188 15.6985C188.033 14.6199 187.257 12.4284 186.146 11.9431C184.92 11.408 183.733 10.9109 182.506 11.7249C182.295 11.8654 181.894 12.0243 181.81 12.3153C181.711 12.6597 182.125 12.8903 182.38 12.9398C183.052 13.0698 183.689 13.0792 184.367 13.0233C184.941 12.9759 185.842 13.1685 185.94 13.9682C186.048 14.8465 185.478 15.4282 184.834 15.7273C184.274 15.9872 183.456 15.9701 182.857 16.079C182.197 16.1988 181.541 16.2673 180.877 16.3442C180.276 16.4139 179.657 16.3557 179.057 16.4146C178.411 16.4779 177.801 16.5193 177.157 16.6684C175.806 16.9814 174.558 18.1442 174.558 19.8297" fill="#5C209A"/>
<path d="M176.231 19.6961C176.085 18.2762 178.132 17.9093 178.994 17.8564C180.542 17.762 182.075 17.6513 183.617 17.4721C184.886 17.3246 186.318 16.8101 187.188 15.6985C188.033 14.6199 187.257 12.4284 186.146 11.9431C184.92 11.408 183.733 10.9109 182.506 11.7249C182.295 11.8654 181.894 12.0243 181.81 12.3153C181.711 12.6597 182.125 12.8903 182.38 12.9398C183.052 13.0698 183.689 13.0792 184.367 13.0233C184.941 12.9759 185.842 13.1685 185.94 13.9682C186.048 14.8465 185.478 15.4282 184.834 15.7273C184.274 15.9872 183.456 15.9701 182.857 16.079C182.197 16.1988 181.541 16.2673 180.877 16.3442C180.276 16.4139 179.657 16.3557 179.057 16.4146C178.411 16.4779 177.801 16.5193 177.157 16.6684C175.806 16.9814 174.558 18.1442 174.558 19.8297" stroke="white" stroke-width="0.1" stroke-miterlimit="10" stroke-linecap="square"/>
<path d="M178.999 20.0974C178.903 14.8967 178.807 9.6959 178.711 4.49513L181.133 4.56224C181.053 7.64815 180.972 10.7339 180.892 13.8198C180.846 15.5731 180.8 17.3265 180.754 19.0798C180.746 19.3945 180.738 19.7089 180.73 20.0235C180.729 20.0582 179.17 20.091 178.999 20.0974" fill="#5C209A"/>
<path d="M178.999 20.0974C178.903 14.8967 178.807 9.6959 178.711 4.49513L181.133 4.56224L180.73 20.0307" fill="#5C209A"/>
<path d="M178.999 20.0974C178.903 14.8967 178.807 9.6959 178.711 4.49513L181.133 4.56224L180.73 20.0307" stroke="white" stroke-width="0.1" stroke-miterlimit="10" stroke-linecap="square"/>
<path d="M180.614 25.2535C180.529 28.8455 180.445 32.4377 180.36 36.0296C180.329 37.3254 180.299 38.6209 180.268 39.9165C180.265 40.0615 179.528 39.9548 179.463 39.9357C179.361 39.9059 179.4 39.7662 179.398 39.6529L179.359 37.6918C179.301 34.7441 179.243 31.7963 179.184 28.8484C179.164 27.8087 179.143 26.769 179.123 25.7292C179.122 25.6893 179.098 25.3212 179.128 25.3198L180.614 25.2535" fill="#5C209A"/>
<path d="M180.614 25.2535C180.529 28.8455 180.445 32.4377 180.36 36.0296C180.329 37.3254 180.299 38.6209 180.268 39.9165C180.265 40.0615 179.528 39.9548 179.463 39.9357C179.361 39.9059 179.4 39.7662 179.398 39.6529L179.359 37.6918C179.278 33.5681 179.196 29.4444 179.115 25.3205" fill="#5C209A"/>
<path d="M180.614 25.2535C180.529 28.8455 180.445 32.4377 180.36 36.0296C180.329 37.3254 180.299 38.6209 180.268 39.9165C180.265 40.0615 179.528 39.9548 179.463 39.9357C179.361 39.9059 179.4 39.7662 179.398 39.6529L179.359 37.6918C179.278 33.5681 179.196 29.4444 179.115 25.3205" stroke="white" stroke-width="0.1" stroke-miterlimit="10" stroke-linecap="square"/>
<path d="M178.711 5.49965C179.405 5.98266 180.358 6.05988 181.075 5.56676Z" fill="#5C209A"/>
<path d="M178.711 5.49965C179.405 5.98266 180.358 6.05988 181.075 5.56676" stroke="white" stroke-width="0.1" stroke-miterlimit="10" stroke-linecap="square"/>
<path d="M179.922 5.0308C181.121 5.0308 182.114 3.98096 182.114 2.5534C182.114 1.01097 181.073 0.00853348 179.8 0.00853348C178.678 0.00853348 177.557 1.34371 177.751 2.69476C177.838 3.30762 177.963 4.08136 178.466 4.43189C178.71 4.60218 179.714 5.38116 179.922 5.0308Z" fill="#5C209A"/>
<path d="M179.922 5.03081C181.121 5.03081 182.114 3.98096 182.114 2.5534C182.114 1.08801 181.128 0.00853348 179.886 0.00853348C178.719 0.00853348 177.707 1.16087 177.73 2.5534C177.756 4.07631 178.746 4.86992 179.922 5.09774" fill="#5C209A"/>
<path d="M179.922 5.03081C181.121 5.03081 182.114 3.98096 182.114 2.5534C182.114 1.08801 181.128 0.00853348 179.886 0.00853348C178.719 0.00853348 177.707 1.16087 177.73 2.5534C177.756 4.07631 178.746 4.86992 179.922 5.09774" stroke="white" stroke-width="0.1" stroke-miterlimit="10" stroke-linecap="square"/>
<path d="M181.364 32.2848C182.037 31.3136 182.155 29.8285 181.479 28.8023C180.693 27.6083 179.308 27.4046 178.468 26.2894C177.99 25.6551 177.618 24.9932 178.364 24.383C178.957 23.8982 179.734 23.7923 180.42 23.6263C181.67 23.3243 182.991 23.0316 184.034 22.1249C184.604 21.6286 185.05 21.0916 185.295 20.2953C185.562 19.4283 185.337 18.8122 184.975 18.0306C184.42 16.8331 182.552 16.3477 181.491 16.3477C180.287 16.3477 178.954 16.3478 177.759 16.131C177.03 15.9985 176.302 15.8436 175.566 15.7658C174.961 15.7019 174.288 15.2162 174.113 14.5086C173.598 12.4176 176.24 13.1315 177.147 12.9562C177.586 12.8713 178.668 12.6261 178.018 11.9281C177.647 11.5293 176.781 11.1915 176.282 11.1915C174.978 11.1915 173.704 11.6918 172.891 12.9055C172.505 13.4821 172.32 14.2455 172.52 14.9417C172.767 15.7986 173.28 16.1765 173.942 16.5805C176.405 18.0858 179.479 17.1925 182.084 17.9882C182.566 18.1353 183.596 18.4106 183.675 19.1327C183.777 20.0696 183.317 20.5519 182.714 21.0958C181.677 22.0313 180.033 22.1158 178.793 22.4212C177.997 22.6169 176.751 23.2092 176.391 24.1485C175.945 25.3127 176.198 26.6167 177.169 27.3415C177.966 27.9357 178.777 28.4853 179.576 29.0706C179.969 29.3591 180.159 29.6782 180.47 30.0413C180.661 30.2651 180.453 31.4244 180.441 31.7492C180.679 31.7692 181.332 32.3165 181.364 32.2848" fill="#5C209A"/>
<path d="M181.364 32.2847C182.037 31.3135 182.155 29.8284 181.479 28.8023C180.693 27.6083 179.308 27.4045 178.468 26.2893C177.99 25.655 177.618 24.9932 178.364 24.383C178.957 23.8982 179.734 23.7922 180.42 23.6263C181.67 23.3242 182.991 23.0316 184.034 22.1248C184.604 21.6286 185.05 21.0915 185.295 20.2953C185.562 19.4283 185.337 18.8122 184.975 18.0306C184.42 16.8331 182.552 16.3476 181.491 16.3476C180.287 16.3476 178.954 16.3478 177.759 16.131C177.03 15.9985 176.302 15.8436 175.566 15.7658C174.961 15.7018 174.288 15.2162 174.113 14.5086C173.598 12.4176 176.24 13.1315 177.147 12.9562C177.586 12.8713 178.668 12.6261 178.018 11.9281C177.647 11.5293 176.781 11.1915 176.282 11.1915C174.978 11.1915 173.704 11.6918 172.891 12.9055C172.505 13.4821 172.32 14.2455 172.52 14.9417C172.767 15.7986 173.28 16.1765 173.942 16.5805C176.405 18.0858 179.479 17.1925 182.084 17.9882C182.566 18.1353 183.596 18.4106 183.675 19.1327C183.777 20.0696 183.317 20.5519 182.714 21.0957C181.677 22.0312 180.033 22.1158 178.793 22.4211C177.997 22.6169 176.751 23.2092 176.391 24.1485C175.945 25.3127 176.198 26.6167 177.169 27.3414C177.966 27.9356 178.777 28.4852 179.576 29.0705C179.969 29.359 180.159 29.6782 180.47 30.0413C180.661 30.2651 180.453 31.4244 180.441 31.7491C180.767 31.7763 181.124 32.0872 181.364 32.3517" fill="#5C209A"/>
<path d="M181.364 32.2847C182.037 31.3135 182.155 29.8284 181.479 28.8023C180.693 27.6083 179.308 27.4045 178.468 26.2893C177.99 25.655 177.618 24.9932 178.364 24.383C178.957 23.8982 179.734 23.7922 180.42 23.6263C181.67 23.3242 182.991 23.0316 184.034 22.1248C184.604 21.6286 185.05 21.0915 185.295 20.2953C185.562 19.4283 185.337 18.8122 184.975 18.0306C184.42 16.8331 182.552 16.3476 181.491 16.3476C180.287 16.3476 178.954 16.3478 177.759 16.131C177.03 15.9985 176.302 15.8436 175.566 15.7658C174.961 15.7018 174.288 15.2162 174.113 14.5086C173.598 12.4176 176.24 13.1315 177.147 12.9562C177.586 12.8713 178.668 12.6261 178.018 11.9281C177.647 11.5293 176.781 11.1915 176.282 11.1915C174.978 11.1915 173.704 11.6918 172.891 12.9055C172.505 13.4821 172.32 14.2455 172.52 14.9417C172.767 15.7986 173.28 16.1765 173.942 16.5805C176.405 18.0858 179.479 17.1925 182.084 17.9882C182.566 18.1353 183.596 18.4106 183.675 19.1327C183.777 20.0696 183.317 20.5519 182.714 21.0957C181.677 22.0312 180.033 22.1158 178.793 22.4211C177.997 22.6169 176.751 23.2092 176.391 24.1485C175.945 25.3127 176.198 26.6167 177.169 27.3414C177.966 27.9356 178.777 28.4852 179.576 29.0705C179.969 29.359 180.159 29.6782 180.47 30.0413C180.661 30.2651 180.453 31.4244 180.441 31.7491C180.767 31.7763 181.124 32.0872 181.364 32.3517" stroke="white" stroke-width="0.1" stroke-miterlimit="10" stroke-linecap="square"/>
<path d="M180.325 39.2488C180.629 39.4355 181.018 39.0154 181.018 38.6612C181.018 38.1892 180.958 37.8866 180.601 37.6094C179.992 37.1353 179.415 36.7872 178.884 36.1684C178.741 36.4817 178.538 36.8848 178.538 37.2375C178.538 37.7334 178.624 37.8596 178.854 38.2594C178.942 38.4132 179.417 38.6211 179.576 38.7133C179.824 38.8575 180.07 39.0509 180.325 39.2488" fill="#5C209A"/>
<path d="M180.325 39.2488C180.629 39.4355 181.018 39.0154 181.018 38.6612C181.018 38.1892 180.958 37.8866 180.601 37.6094C179.992 37.1353 179.415 36.7872 178.884 36.1684C178.741 36.4817 178.538 36.8848 178.538 37.2375C178.538 37.7334 178.624 37.8596 178.854 38.2594C178.942 38.4132 179.417 38.6211 179.576 38.7133C179.824 38.8575 180.07 39.0509 180.325 39.2488" fill="#5C209A"/>
<path d="M180.325 39.2488C180.629 39.4355 181.018 39.0154 181.018 38.6612C181.018 38.1892 180.958 37.8866 180.601 37.6094C179.992 37.1353 179.415 36.7872 178.884 36.1684C178.741 36.4817 178.538 36.8848 178.538 37.2375C178.538 37.7334 178.624 37.8596 178.854 38.2594C178.942 38.4132 179.417 38.6211 179.576 38.7133C179.824 38.8575 180.07 39.0509 180.325 39.2488" stroke="white" stroke-width="0.1" stroke-miterlimit="10" stroke-linecap="square"/>
<path d="M176.404 11.7941C176.428 11.8357 176.381 11.8838 176.461 11.8612C176.744 11.5032 176.018 11.6081 176.346 11.8612C176.419 11.8819 176.388 11.8436 176.404 11.7941" fill="#5C209A"/>
<path d="M183.786 11.9283C184.015 11.963 183.986 11.746 183.844 11.7272C183.695 11.7076 183.574 11.9065 183.786 11.9283Z" fill="#5C209A"/>
<path d="M181.422 2.62049C181.75 3.26368 180.799 4.21103 180.383 4.42839C180.837 4.35588 181.018 4.09372 181.319 3.74389C181.476 3.56052 181.661 2.74634 181.422 2.62049" fill="#5C209A"/>
<path d="M179.115 25.3207L179.026 21.3246C179.023 21.1924 178.945 20.0996 179.043 20.0959C179.605 20.0741 180.167 20.0525 180.729 20.0309C180.701 21.3204 180.672 22.6099 180.644 23.8996C180.639 24.1229 180.747 25.0801 180.614 25.2537C180.542 25.3474 179.972 25.2825 179.864 25.2872L179.115 25.3207" fill="#5C209A"/>
<path d="M180.73 19.9632L180.614 25.2531Z" fill="#5C209A"/>
<path d="M180.73 19.9632L180.614 25.2531" stroke="white" stroke-width="0.1" stroke-miterlimit="10" stroke-linecap="square"/>
<path d="M179.114 25.3214L178.999 20.0981Z" fill="#5C209A"/>
<path d="M179.114 25.3214L178.999 20.0981" stroke="white" stroke-width="0.1" stroke-miterlimit="10" stroke-linecap="square"/>
<path d="M183.844 25.1864C183.437 22.8179 181.154 22.3846 179.403 22.0393C178.442 21.8497 177.711 21.5926 176.937 20.8737C176.833 20.7779 176.176 19.7001 176.219 19.6967L174.558 19.8293C174.7 20.4045 174.804 20.8652 175.146 21.3287C175.48 21.7813 175.839 22.115 176.265 22.4447C177.066 23.0654 178.123 23.3673 179.056 23.5706C179.869 23.7478 180.913 23.8225 181.595 24.4163C181.759 24.5591 181.945 24.6628 182.014 24.9037C182.081 25.1407 182.055 25.2533 182.278 25.2533C182.52 25.2535 183.782 25.3907 183.844 25.1864Z" fill="#5C209A"/>
<path d="M174.558 19.829C174.793 20.7821 175.129 21.4926 175.827 22.1056C176.477 22.6763 177.298 23.0531 178.076 23.3111C179.294 23.7146 181.64 23.5968 182.113 25.2531" fill="#5C209A"/>
<path d="M174.558 19.829C174.793 20.7821 175.129 21.4926 175.827 22.1056C176.477 22.6763 177.298 23.0531 178.076 23.3111C179.294 23.7146 181.64 23.5968 182.113 25.2531" stroke="white" stroke-width="0.1" stroke-miterlimit="10" stroke-linecap="square"/>
<path d="M183.843 25.1872C183.102 20.8736 177.536 23.4971 176.231 19.6965Z" fill="#5C209A"/>
<path d="M183.843 25.1872C183.102 20.8736 177.536 23.4971 176.231 19.6965" stroke="white" stroke-width="0.1" stroke-miterlimit="10" stroke-linecap="square"/>
<path d="M180.383 34.0928C180.724 33.5693 179.298 33.2059 178.999 33.0215C178.564 32.7522 177.912 32.2061 177.825 31.6079C177.768 31.2133 177.998 31.2207 178.295 31.041L179.229 30.4768C179.014 31.169 179.499 31.3173 179.967 31.4984C180.462 31.6907 180.85 31.9865 181.306 32.2512C181.664 32.4592 181.9 33.2321 181.883 33.6912C181.866 34.1407 181.664 34.0337 181.315 34.0506C181.004 34.0656 180.694 34.0877 180.383 34.0928" fill="#5C209A"/>
<path d="M181.825 34.0262C182.243 33.1718 181.361 32.3044 180.845 31.9502C180.462 31.6877 180.111 31.5814 179.692 31.4148C179.285 31.253 179.076 30.9694 179.23 30.4772" fill="#5C209A"/>
<path d="M181.825 34.0262C182.243 33.1718 181.361 32.3044 180.845 31.9502C180.462 31.6877 180.111 31.5814 179.692 31.4148C179.285 31.253 179.076 30.9694 179.23 30.4772" stroke="white" stroke-width="0.1" stroke-miterlimit="10" stroke-linecap="square"/>
<path d="M180.383 34.0925C180.626 33.7198 179.832 33.2891 179.547 33.2891C178.795 33.2891 177.897 32.1033 177.788 31.3472" fill="#5C209A"/>
<path d="M180.383 34.0925C180.626 33.7198 179.832 33.2891 179.547 33.2891C178.795 33.2891 177.897 32.1033 177.788 31.3472" stroke="white" stroke-width="0.1" stroke-miterlimit="10" stroke-linecap="square"/>
<path d="M178.076 34.8962C178.261 36.2809 179.758 37.1449 180.729 37.709C180.815 37.3448 181.018 37.1911 181.018 36.7564C181.018 36.2514 180.535 35.9689 180.21 35.7667C179.876 35.5589 179.635 35.2028 179.345 34.9633C179.173 34.8216 179.139 34.8373 178.861 34.8528L178.076 34.8962Z" fill="#5C209A"/>
<path d="M178.075 34.896C178.261 36.2807 179.758 37.1447 180.729 37.7087C180.783 37.4759 181.017 37.3221 181.017 37.0537C181.017 36.6045 180.945 36.4199 180.671 36.1011C180.258 35.6213 179.515 35.524 179.287 34.8289" fill="#5C209A"/>
<path d="M178.075 34.896C178.261 36.2807 179.758 37.1447 180.729 37.7087C180.783 37.4759 181.017 37.3221 181.017 37.0537C181.017 36.6045 180.945 36.4199 180.671 36.1011C180.258 35.6213 179.515 35.524 179.287 34.8289" stroke="white" stroke-width="0.1" stroke-miterlimit="10" stroke-linecap="square"/>
</g>
<defs>
<clipPath id="clip0">
<rect x="160" width="40" height="40" fill="white"/>
</clipPath>
</defs>
</svg>
