<svg width="190" height="70" viewBox="0 0 190 70" fill="none" xmlns="http://www.w3.org/2000/svg">
<path d="M83.1719 23.875V47.0781C83.1562 50.2969 82.1406 52.9297 80.125 54.9766C78.125 57.0234 75.4062 58.1719 71.9688 58.4219L70.7734 58.4688C67.0391 58.4688 64.0625 57.4609 61.8438 55.4453C59.625 53.4297 58.5 50.6562 58.4688 47.125V23.875H62.9219V46.9844C62.9219 49.4531 63.6016 51.375 64.9609 52.75C66.3203 54.1094 68.2578 54.7891 70.7734 54.7891C73.3203 54.7891 75.2656 54.1094 76.6094 52.75C77.9688 51.3906 78.6484 49.4766 78.6484 47.0078V23.875H83.1719ZM94.3047 58H89.9688V22H94.3047V58ZM105.344 32.6406L105.461 35.4531C107.32 33.2656 109.828 32.1719 112.984 32.1719C116.531 32.1719 118.945 33.5312 120.227 36.25C121.07 35.0312 122.164 34.0469 123.508 33.2969C124.867 32.5469 126.469 32.1719 128.312 32.1719C133.875 32.1719 136.703 35.1172 136.797 41.0078V58H132.461V41.2656C132.461 39.4531 132.047 38.1016 131.219 37.2109C130.391 36.3047 129 35.8516 127.047 35.8516C125.438 35.8516 124.102 36.3359 123.039 37.3047C121.977 38.2578 121.359 39.5469 121.188 41.1719V58H116.828V41.3828C116.828 37.6953 115.023 35.8516 111.414 35.8516C108.57 35.8516 106.625 37.0625 105.578 39.4844V58H101.242V32.6406H105.344ZM159.016 58C158.766 57.5 158.562 56.6094 158.406 55.3281C156.391 57.4219 153.984 58.4688 151.188 58.4688C148.688 58.4688 146.633 57.7656 145.023 56.3594C143.43 54.9375 142.633 53.1406 142.633 50.9688C142.633 48.3281 143.633 46.2812 145.633 44.8281C147.648 43.3594 150.477 42.625 154.117 42.625H158.336V40.6328C158.336 39.1172 157.883 37.9141 156.977 37.0234C156.07 36.1172 154.734 35.6641 152.969 35.6641C151.422 35.6641 150.125 36.0547 149.078 36.8359C148.031 37.6172 147.508 38.5625 147.508 39.6719H143.148C143.148 38.4062 143.594 37.1875 144.484 36.0156C145.391 34.8281 146.609 33.8906 148.141 33.2031C149.688 32.5156 151.383 32.1719 153.227 32.1719C156.148 32.1719 158.438 32.9062 160.094 34.375C161.75 35.8281 162.609 37.8359 162.672 40.3984V52.0703C162.672 54.3984 162.969 56.25 163.562 57.625V58H159.016ZM151.82 54.6953C153.18 54.6953 154.469 54.3438 155.688 53.6406C156.906 52.9375 157.789 52.0234 158.336 50.8984V45.6953H154.938C149.625 45.6953 146.969 47.25 146.969 50.3594C146.969 51.7188 147.422 52.7812 148.328 53.5469C149.234 54.3125 150.398 54.6953 151.82 54.6953ZM177.977 41.8984L183.602 32.6406H188.664L180.367 45.1797L188.922 58H183.906L178.047 48.5078L172.188 58H167.148L175.703 45.1797L167.406 32.6406H172.422L177.977 41.8984Z" fill="white"/>
<g clip-path="url(#clip0)">
<path d="M7.88379 3.95722L7.84485 3.99617V4.05125V47.867C7.84485 50.1046 8.63796 52.0186 10.221 53.6017C11.8041 55.1847 13.7181 55.9779 15.9556 55.9779H31.9113C34.1488 55.9779 36.0629 55.1847 37.6459 53.6017C39.229 52.0186 40.0221 50.1046 40.0221 47.867V3.98892C40.0221 2.94515 40.4019 2.0437 41.1674 1.27823C41.9323 0.513302 42.8439 0.132965 43.9092 0.132965C44.9745 0.132965 45.8861 0.513302 46.6511 1.27823C47.4046 2.03168 47.7843 2.91686 47.7961 3.93984C47.7596 3.98838 47.734 4.04648 47.734 4.11358V47.867C47.734 52.2362 46.1899 55.9628 43.0985 59.0542C40.0071 62.1456 36.2805 63.6898 31.9113 63.6898H15.9556C11.5865 63.6898 7.85994 62.1456 4.76851 59.0542C1.67709 55.9628 0.132935 52.2362 0.132935 47.867V3.98892C0.132935 2.94515 0.51273 2.0437 1.2782 1.27823C2.04314 0.513302 2.95476 0.132965 4.02006 0.132965C5.08535 0.132965 5.99698 0.513302 6.76191 1.27823C7.51396 2.0303 7.89375 2.9136 7.90682 3.93419L7.88379 3.95722Z" fill="white"/>
<path d="M39.804 40.0274V46.1774C39.2656 45.0663 38.6163 44.0254 37.8603 43.0586L37.7429 42.9085L37.6425 43.0705C37.0487 44.0292 36.3368 44.9705 35.5124 45.894C34.713 46.7841 33.6181 47.3101 32.4261 47.3706L32.4251 47.3707C31.8381 47.4045 31.25 47.3214 30.6953 47.1261C30.1405 46.9309 29.6301 46.6272 29.1937 46.233L29.1934 46.2328C28.6896 45.7802 28.2951 45.2195 28.0393 44.5926C27.7835 43.9655 27.6731 43.2887 27.7165 42.613V42.6129C27.9057 39.6246 26.9345 36.1278 24.8466 32.2144L24.8463 32.2139C23.7869 30.2456 22.5192 28.563 21.0049 27.168L20.8218 26.9993L20.7835 27.2454C20.631 28.2255 20.3806 29.1879 20.0359 30.1178C19.1935 32.3788 17.9794 34.4851 16.4304 36.3749L16.4302 36.3751C15.3617 37.6856 14.1434 38.8665 12.8001 39.8936L12.7999 39.8938C10.812 41.4198 9.15059 43.3705 7.97784 45.5539V40.0307C8.34195 39.3019 8.51661 38.8487 8.61255 38.5476C8.65959 38.4 8.68734 38.2902 8.70869 38.2057L8.71078 38.1974C8.73311 38.109 8.74636 38.0595 8.76531 38.018C8.79898 37.9442 8.85561 37.8831 9.097 37.7013C9.16669 37.6489 9.25069 37.587 9.35172 37.5125C9.58919 37.3375 9.92074 37.0933 10.3816 36.7391L10.3819 36.7388C11.4811 35.8888 12.4813 34.9181 13.3638 33.8448V33.8447C14.632 32.3003 15.6242 30.5798 16.3151 28.7272C16.8838 27.2043 17.1216 25.3781 17.0275 23.3207L16.8904 20.329V20.3288C16.8767 20.0401 17.1938 19.85 17.4377 19.9945L17.4381 19.9948L20.012 21.5092C23.5176 23.5779 26.3242 26.5448 28.3451 30.3511L28.3453 30.3513C30.7937 34.9435 31.9055 39.1508 31.6768 42.8706V42.8714C31.6684 43.0211 31.7261 43.1735 31.8455 43.277C31.9734 43.3951 32.1196 43.4125 32.2142 43.4039C32.3039 43.3958 32.4385 43.3621 32.5549 43.2375L32.5558 43.2366L32.5566 43.2357C33.8804 41.7612 34.8199 40.2568 35.332 38.7775L36.1417 36.4542C36.1419 36.4541 36.1419 36.4538 36.1419 36.4537C36.1625 36.3967 36.1966 36.3456 36.2416 36.3049C36.2865 36.2641 36.3409 36.2349 36.3998 36.22C36.4587 36.2049 36.5204 36.2047 36.5794 36.2192C36.6381 36.2335 36.6925 36.262 36.7377 36.3021C36.7379 36.3024 36.7381 36.3025 36.7383 36.3028L38.5506 37.9656L38.5508 37.9658C38.9748 38.354 39.2427 38.5745 39.4076 38.6955C39.4065 38.7008 39.4056 38.7061 39.4048 38.7113C39.394 38.7798 39.4007 38.8661 39.4223 38.9725C39.4654 39.1835 39.577 39.5138 39.804 40.0274Z" fill="white"/>
</g>
<rect x="0.2" y="0.2" width="47.6" height="63.4227" stroke="#4E598C" stroke-width="0.4"/>
<defs>
<clipPath id="clip0">
</clipPath>
</defs>
</svg>
